<svg id="Layer_1" data-name="Layer 1" xmlns="http://www.w3.org/2000/svg" xmlns:xlink="http://www.w3.org/1999/xlink" viewBox="0 0 480.19 554.47"><defs><style>.cls-1{fill:none;}.cls-2{fill:#414142;}.cls-3{fill:#de7b47;}.cls-4{fill:#040006;}.cls-5{clip-path:url(#clip-path);}.cls-6{clip-path:url(#clip-path-2);}.cls-7{fill:#d5a280;}.cls-8{clip-path:url(#clip-path-3);}.cls-9{fill:#090609;}.cls-10{fill:#afac8f;}.cls-11{fill:#898567;}.cls-12{fill:#e5e2be;}.cls-13{fill:#ccc8b0;}.cls-14{fill:#e8c2a7;}.cls-15{fill:#413d3b;}.cls-16{fill:#fff;}.cls-17{fill:#9f9c9b;}.cls-18{fill:#a0a0a0;}.cls-19{fill:#423e3c;}.cls-20{fill:#a09d9c;}.cls-21{fill:#afafaf;}.cls-22{fill:#9f9f9f;}.cls-23{fill:#888;}.cls-24{clip-path:url(#clip-path-5);}.cls-25{fill:#afab8e;}.cls-26{fill:#898463;}</style><clipPath id="clip-path" transform="translate(-35.95 -6.93)"><rect id="_Rect치ngulo_" data-name="&lt;Rect치ngulo&gt;" class="cls-1" x="109.24" y="122.91" width="314.8" height="285.08"/></clipPath><clipPath id="clip-path-2" transform="translate(-35.95 -6.93)"><rect id="_Rect치ngulo_2" data-name="&lt;Rect치ngulo&gt;" class="cls-1" x="130.23" y="110.9" width="283.15" height="298.36" transform="translate(543.6 520.15) rotate(180)"/></clipPath><clipPath id="clip-path-3" transform="translate(-35.95 -6.93)"><polygon class="cls-1" points="182.11 226.44 182.11 335.09 276.2 389.41 370.29 335.09 370.29 226.44 276.2 172.12 182.11 226.44"/></clipPath><clipPath id="clip-path-5" transform="translate(-35.95 -6.93)"><polygon class="cls-1" points="179.11 228.44 179.11 337.09 273.2 391.41 367.29 337.09 367.29 228.44 273.2 174.12 179.11 228.44"/></clipPath></defs><title>mission-day-alcala</title><polygon class="cls-2" points="0 138.62 0 415.86 240.09 554.48 480.19 415.86 480.19 138.62 240.09 0 0 138.62"/><polygon class="cls-3" points="16.24 147.99 16.24 406.48 240.09 535.73 463.95 406.48 463.95 147.99 240.09 18.75 16.24 147.99"/><polygon class="cls-2" points="113.23 203.99 113.23 350.48 240.09 423.73 366.96 350.48 366.96 203.99 240.09 130.75 113.23 203.99"/><polygon class="cls-4" points="149.14 224.72 149.14 329.75 240.09 382.27 331.05 329.75 331.05 224.72 240.09 172.21 149.14 224.72"/><path class="cls-2" d="M162.08,218.6l.46,50L74.05,217.56c-5.76-3.19-9.84-11.15-9.53-21.57l-.31-41.33c9.08,11.37,14.17,15.58,22.61,20.48Z" transform="translate(-35.95 -6.93)"/><path class="cls-2" d="M162.08,315.24l.46,50.05L74.05,314.2c-5.76-3.19-9.84-11.15-9.53-21.57l-.31-41.33c9.08,11.37,14.17,15.58,22.61,20.49Z" transform="translate(-35.95 -6.93)"/><path class="cls-2" d="M388.33,349.35l-.46-50.05,88.49,51.09c5.76,3.19,9.84,11.15,9.53,21.56l.31,41.34c-9.08-11.38-14.17-15.59-22.61-20.49Z" transform="translate(-35.95 -6.93)"/><path class="cls-2" d="M388.32,252.25l-.45-50.05,88.48,51.09c5.76,3.19,9.85,11.15,9.53,21.57l.32,41.33c-9.09-11.38-14.17-15.58-22.62-20.49Z" transform="translate(-35.95 -6.93)"/><g id="_Recortar_grupo_" data-name="&lt;Recortar grupo&gt;"><g class="cls-5"><g id="_Recortar_grupo_2" data-name="&lt;Recortar grupo&gt;"><g class="cls-6"><path id="_Trazado_" data-name="&lt;Trazado&gt;" class="cls-7" d="M356.07,304.43s-7,2.94-8.21,8.36,2.32,29.59,2.32,29.59L365,338.12Z" transform="translate(-35.95 -6.93)"/><g class="cls-8"><path id="_Trazado_2" data-name="&lt;Trazado&gt;" class="cls-9" d="M409.66,441.82c5-1.24-5.58-31-5.58-31l-91.7-109.66L282,456.07s13.63-.62,31.59-.62,28.5-1.86,35.32-1.86S404.7,443.06,409.66,441.82Z" transform="translate(-35.95 -6.93)"/></g><g class="cls-8"><path id="_Trazado_3" data-name="&lt;Trazado&gt;" class="cls-9" d="M222.86,476.79c14.23.49,64.51,0,67.35,0s5.22,2.47,10.44,0l70.66-70.37L322.46,271.63,211,222.57s-64.5,30.23-71.14,139.25,37.94,113.48,42.68,114.47S208.64,476.29,222.86,476.79Z" transform="translate(-35.95 -6.93)"/></g><path id="_Trazado_4" data-name="&lt;Trazado&gt;" class="cls-10" d="M340.94,310.8l-11.59-44.32-11.83,4.92L199.71,217l-13,3.29L164,261.1s23,72,82.48,97.64S340.94,310.8,340.94,310.8Z" transform="translate(-35.95 -6.93)"/><path id="_Trazado_5" data-name="&lt;Trazado&gt;" class="cls-11" d="M329.35,266.48l-11.83,4.92L199.71,217l-13,3.29-21.12,38.13.86-.38c5.45-2.47,4.7-12.14,12.63-16.85s3,15.37-4.21,15.37c-5.69,0-8.27,5.13-9,9.61.84,2.18,2,5,3.45,8.29,2.19.63,4.83-.93,6.27-7.25,2.73-11.89,11.65-10.16,12.64-5s-4,10.41-10.65,13.38c-2.52,1.12-4,3.89-4.46,6.94,1.74,3.51,3.75,7.32,6,11.31a6.57,6.57,0,0,0,.66.09c8.42.74-.25-10.41,8.42-17.34s15.61,9.91,8.18,17.59c-6.92,7.14-15.76-1.36-12,8.38,2.18,3.41,4.55,6.89,7.12,10.38,3.88,1.89,7-2.3,7.33-7.61.49-7.93,7.68-17.84,11.64-10.41s-.74,12.88-7.93,17.59a9.39,9.39,0,0,0-4.28,9c2.62,3.13,5.41,6.23,8.37,9.25a17.51,17.51,0,0,0,2.11.56c11.89,2.48-.75-21.06,10.4-26.51s14.87,13.38,10.41,20.32c-3.13,4.87-16.42,6.69-16.48,11.81a129.6,129.6,0,0,0,16.47,12.69c13.16,5.38,10.15-5.72,6.95-16.82-3.72-12.88,8.92-21.56,18.08-12.64s-8.17,20.82-8.92,34.2a7.66,7.66,0,0,0,.93,4.39,69,69,0,0,0,11,3.7c6.19-.61,12.75-3.67,14.1-7.1,2.73-6.94-11.89-19.82-6.69-27.26s19.08-2,17.59,10.16c-1.33,10.86-13.16,21.32-3.76,25.36a58.13,58.13,0,0,0,17.29-5.31c2.36-5.94.62-14.26-3.62-18.07-7.43-6.69-7.18-23.78,4.71-17.84s-2.72,21.06,8.18,29a8.78,8.78,0,0,0,1.17.73q3.23-2.29,6.16-4.82c1.79-7.89-.36-22.09-4.61-25.39-6.69-5.21,2.48-11.65,7.14-10.78s4,20.69,8.22,23.17,10.41-17.1,2.23-22.8-4.48-10-4.48-10S329,290,332,297.42c2.64,6.62,0,23,4.89,20.69,2.65-4.43,4-7.31,4-7.31L332.62,279c-1.23-2.84-2.09-4.62-2.09-4.62l.32-2.18Z" transform="translate(-35.95 -6.93)"/><path id="_Trazado_6" data-name="&lt;Trazado&gt;" class="cls-12" d="M291.88,325.66c17.47-5.2,45.71-26.39,36.05-66.89s-38.67-54.86-38.67-54.86l-49.78-18.73c-25.27-11.15-74.33,34.56-50.6,82.51S274.41,330.86,291.88,325.66Z" transform="translate(-35.95 -6.93)"/><path id="_Trazado_compuesto_" data-name="&lt;Trazado compuesto&gt;" class="cls-13" d="M182.58,241l66.93-5.31-64.6,21.85a62.85,62.85,0,0,0,4,10.12A91.4,91.4,0,0,0,196.24,280c11-12.51,32.26-32.48,56.62-34.1.62-.05,1.23-.07,1.85-.09s1.49,0,2.24,0c30.92.61-28.46,34.52-50.34,46.44a113.17,113.17,0,0,0,21,16.49c9.64-15.81,26-39.59,39.69-44,20.81-6.69-3.34,8.92-3.34,8.92l-11.2,47a111.51,111.51,0,0,0,23.2,5.56c-4.26-13.64-7.68-30.82-2.71-41.74a80.85,80.85,0,0,0,4.57-11.81l19.61,51a57.53,57.53,0,0,0,17.79-12.43C304.58,307.29,291,299.39,289.65,284A106.12,106.12,0,0,0,286.81,266L293,277.72l35.19,10.65c.19-.72.36-1.45.52-2.19-11.58-9.13-40.33-31.5-43.88-31.5-4.1,0-7.25-9.41-7.74-10.94l.15-.05,15,11.36L328,259.26c0-.17-.07-.33-.11-.49-.42-1.75-.88-3.45-1.36-5.11-10.9-6.52-28.84-15.1-43.72-11.91,9.37-3.24,24.26-8.46,33.18-11.59a87.45,87.45,0,0,0-7.07-9.63c-12.71,6-30.31,12.58-34.92,5.9-7.43-10.77-21.84-22.38-21.84-22.38l-9,17.18c-.77,0-30.08-10-48-16.13a64.73,64.73,0,0,0-7.32,12.36l62,10.09-66.1,2.37A56.51,56.51,0,0,0,182.58,241Zm94.5,2.55-.05,0,0-.07Z" transform="translate(-35.95 -6.93)"/><path id="_Trazado_7" data-name="&lt;Trazado&gt;" class="cls-14" d="M296,187.62s6.46-68.67-62.68-57.57C177.6,139,222.61,296,296,301Z" transform="translate(-35.95 -6.93)"/><path id="_Trazado_8" data-name="&lt;Trazado&gt;" class="cls-7" d="M255.09,269.92s-16-13.38-16-32.71-3.72-97.37-3.72-97.37L221.75,135c-32.53,25.24-2,132.7,52.41,159.88,1.55-1.11,2.48-1.91,2.48-1.91l-13-20.44,7.81-13.75Z" transform="translate(-35.95 -6.93)"/><g id="_Grupo_" data-name="&lt;Grupo&gt;"><path id="_Trazado_9" data-name="&lt;Trazado&gt;" class="cls-15" d="M296,203.42c-1.69-2-8.92-9.51-17.22,1.31,0,0,8.93-8.33,17.22-1.16Z" transform="translate(-35.95 -6.93)"/><path id="_Trazado_10" data-name="&lt;Trazado&gt;" class="cls-15" d="M296,211.34v-.18c-1-1.31-3.87-4.69-7.17-4.69-4.08,0-6.26,6.44-6.26,6.44S286.32,202.88,296,211.34Z" transform="translate(-35.95 -6.93)"/><path id="_Trazado_11" data-name="&lt;Trazado&gt;" class="cls-7" d="M289.09,205.17a7.88,7.88,0,0,1,5.58,3.22s-2.63-4.71-6.31-4.34-4.58,4.58-4.58,4.58S285.5,204.92,289.09,205.17Z" transform="translate(-35.95 -6.93)"/><path id="_Trazado_12" data-name="&lt;Trazado&gt;" class="cls-15" d="M291.34,212.08c0-2.69-1.6-4.87-3.57-4.87s-3.57,2.18-3.57,4.87,1.6,4.88,3.57,4.88S291.34,214.77,291.34,212.08Z" transform="translate(-35.95 -6.93)"/><path id="_Trazado_13" data-name="&lt;Trazado&gt;" class="cls-16" d="M290.25,214.39c0-.68-.4-1.23-.9-1.23s-.91.55-.91,1.23.4,1.24.91,1.24S290.25,215.08,290.25,214.39Z" transform="translate(-35.95 -6.93)"/></g><g id="_Grupo_2" data-name="&lt;Grupo&gt;"><path id="_Trazado_14" data-name="&lt;Trazado&gt;" class="cls-17" d="M270.05,289.77l.27.21,4.46-1.11Z" transform="translate(-35.95 -6.93)"/><path id="_Trazado_15" data-name="&lt;Trazado&gt;" class="cls-18" d="M266.53,290.44l3.52-.67c-2.92-2.25-28.46-22.45-36.52-46.61-7.49-22.49-5-94.69-4.26-112.13C187.15,144.6,213.45,255.26,266.53,290.44Z" transform="translate(-35.95 -6.93)"/><path id="_Trazado_16" data-name="&lt;Trazado&gt;" class="cls-19" d="M214,209.71c4.85.79,10.36,0,14.94-1-1.48-29.47-.19-65.92.3-77.64C206.75,138.29,203.79,173.31,214,209.71Z" transform="translate(-35.95 -6.93)"/></g><path id="_Trazado_17" data-name="&lt;Trazado&gt;" class="cls-17" d="M270.05,289.77l.27.21,4.46-1.11Z" transform="translate(-35.95 -6.93)"/><path id="_Trazado_18" data-name="&lt;Trazado&gt;" class="cls-20" d="M287.82,261l-8.92-.25s-1.83,21.44-14.24,28.43c9.62,6.78,20.17,11.09,31.37,11.86V287.56C293.1,281.06,288.48,269.67,287.82,261Z" transform="translate(-35.95 -6.93)"/><path id="_Trazado_19" data-name="&lt;Trazado&gt;" class="cls-7" d="M280.13,262.71c9.3-.5,13.14-3.72,13.14-3.72l-3.22-3c-9.05,2.6-20.69-.62-20.69-.62L267.5,258S270.84,263.21,280.13,262.71Z" transform="translate(-35.95 -6.93)"/><path id="_Trazado_20" data-name="&lt;Trazado&gt;" class="cls-21" d="M283.57,253.19a13.74,13.74,0,0,0,2,3.82c3.71,5,23.29,19.58,23.29,19.58-5-22.3-22.06-31-22.06-31l-3.25.61-5-.61s-26.17,8.68-33.76,31c0,0,30-14.62,35.66-19.58A13.39,13.39,0,0,0,283.57,253.19Z" transform="translate(-35.95 -6.93)"/><path id="_Trazado_21" data-name="&lt;Trazado&gt;" class="cls-7" d="M275.67,245c5.21,3.44,13.38.69,13.38.69C292.52,225.53,278.4,204,278.4,204c10.16,25,8.42,39.65,8.42,39.65C283,246.16,275.67,245,275.67,245Z" transform="translate(-35.95 -6.93)"/><path id="_Trazado_22" data-name="&lt;Trazado&gt;" class="cls-19" d="M270.7,154.71c5.8-1.13,10.91-4.92,14.83-8.85-8.67-11.76-24.26-20.29-52.18-15.81a24.9,24.9,0,0,0-13.83,6.88l4.72,5.88S257.32,157.31,270.7,154.71Z" transform="translate(-35.95 -6.93)"/><path id="_Trazado_23" data-name="&lt;Trazado&gt;" class="cls-7" d="M227.59,241.25,224.23,209s-12.1-12.76-16.8-3S219.86,251.66,227.59,241.25Z" transform="translate(-35.95 -6.93)"/><g id="_Grupo_3" data-name="&lt;Grupo&gt;"><path id="_Trazado_24" data-name="&lt;Trazado&gt;" class="cls-15" d="M239.17,204.73s15.2-8.59,29.07-.82C268.24,203.91,254.86,192.34,239.17,204.73Z" transform="translate(-35.95 -6.93)"/><path id="_Trazado_25" data-name="&lt;Trazado&gt;" class="cls-15" d="M263.16,211.67s-4.71-5.2-10.28-5.2-8.55,6.44-8.55,6.44S249.53,202.63,263.16,211.67Z" transform="translate(-35.95 -6.93)"/><path id="_Trazado_26" data-name="&lt;Trazado&gt;" class="cls-7" d="M253.19,205.17a11.65,11.65,0,0,1,7.62,3.22s-3.59-4.71-8.61-4.34a6.93,6.93,0,0,0-6.26,4.58A8.33,8.33,0,0,1,253.19,205.17Z" transform="translate(-35.95 -6.93)"/><path id="_Trazado_27" data-name="&lt;Trazado&gt;" class="cls-15" d="M256.27,212.08a4.88,4.88,0,1,0-4.88,4.88A4.88,4.88,0,0,0,256.27,212.08Z" transform="translate(-35.95 -6.93)"/><path id="_Trazado_28" data-name="&lt;Trazado&gt;" class="cls-16" d="M254.78,214.39a1.24,1.24,0,1,0-1.24,1.24A1.24,1.24,0,0,0,254.78,214.39Z" transform="translate(-35.95 -6.93)"/></g><g id="_Grupo_4" data-name="&lt;Grupo&gt;"><g id="_Grupo_5" data-name="&lt;Grupo&gt;"><g id="_Grupo_6" data-name="&lt;Grupo&gt;"><path id="_Trazado_29" data-name="&lt;Trazado&gt;" class="cls-7" d="M342.09,313.68s-10.72-8.67-14.14-.1l11.37,5L351.49,330v-5l5.66-9.76Z" transform="translate(-35.95 -6.93)"/></g><g id="_Grupo_7" data-name="&lt;Grupo&gt;"><g id="_Grupo_8" data-name="&lt;Grupo&gt;"><polygon id="_Trazado_30" data-name="&lt;Trazado&gt;" class="cls-22" points="307.12 275.78 294.7 322.35 297.62 327.39 311.63 274.85 307.12 275.78"/></g><g id="_Grupo_9" data-name="&lt;Grupo&gt;"><g id="_Grupo_10" data-name="&lt;Grupo&gt;"><path id="_Trazado_31" data-name="&lt;Trazado&gt;" class="cls-23" d="M376.35,229.11c8.31-31.17,8.95-59.74,2.82-74.36-12.6,9.62-26.27,34.72-34.58,65.89s-8.95,59.74-2.82,74.36C354.37,285.37,368,260.27,376.35,229.11Z" transform="translate(-35.95 -6.93)"/></g><g id="_Grupo_11" data-name="&lt;Grupo&gt;"><path id="_Trazado_32" data-name="&lt;Trazado&gt;" class="cls-22" d="M376.35,229.11c8.31-31.17,8.95-59.74,2.82-74.36l-.08.06L341.73,294.9a.42.42,0,0,1,0,.1C354.37,285.37,368,260.27,376.35,229.11Z" transform="translate(-35.95 -6.93)"/></g><g id="_Grupo_12" data-name="&lt;Grupo&gt;"><g id="_Grupo_13" data-name="&lt;Grupo&gt;"><path id="_Trazado_33" data-name="&lt;Trazado&gt;" class="cls-22" d="M343.65,224.29q-.43,1.76-.84,3.48L363.76,264c.43-.9.85-1.81,1.27-2.74Z" transform="translate(-35.95 -6.93)"/></g><g id="_Grupo_14" data-name="&lt;Grupo&gt;"><path id="_Trazado_34" data-name="&lt;Trazado&gt;" class="cls-22" d="M340.48,239.16c-.23,1.28-.44,2.56-.64,3.83l18.33,31.65c.47-.82.94-1.65,1.41-2.5Z" transform="translate(-35.95 -6.93)"/></g><g id="_Grupo_15" data-name="&lt;Grupo&gt;"><path id="_Trazado_35" data-name="&lt;Trazado&gt;" class="cls-22" d="M342,231.56c-.26,1.22-.51,2.43-.75,3.64L361,269.42c.45-.85.9-1.73,1.34-2.62Z" transform="translate(-35.95 -6.93)"/></g><g id="_Grupo_16" data-name="&lt;Grupo&gt;"><path id="_Trazado_36" data-name="&lt;Trazado&gt;" class="cls-22" d="M345.67,216.73c-.31,1.11-.62,2.22-.92,3.34l21.81,37.67c.4-.94.8-1.9,1.2-2.87Z" transform="translate(-35.95 -6.93)"/></g><g id="_Grupo_17" data-name="&lt;Grupo&gt;"><path id="_Trazado_37" data-name="&lt;Trazado&gt;" class="cls-22" d="M347.69,210.05c-.33,1.06-.67,2.13-1,3.21L369,251.77c.38-1,.76-2,1.13-3Z" transform="translate(-35.95 -6.93)"/></g><g id="_Grupo_18" data-name="&lt;Grupo&gt;"><path id="_Trazado_38" data-name="&lt;Trazado&gt;" class="cls-22" d="M349.91,286.83l-12.19-21.05c0,1.68,0,3.31,0,4.91l10.51,18.15C348.78,288.2,349.34,287.53,349.91,286.83Z" transform="translate(-35.95 -6.93)"/></g><g id="_Grupo_19" data-name="&lt;Grupo&gt;"><path id="_Trazado_39" data-name="&lt;Trazado&gt;" class="cls-22" d="M338.21,256.46c-.12,1.49-.22,3-.3,4.4l13.74,23.73c.53-.71,1.06-1.44,1.58-2.19Z" transform="translate(-35.95 -6.93)"/></g><g id="_Grupo_20" data-name="&lt;Grupo&gt;"><path id="_Trazado_40" data-name="&lt;Trazado&gt;" class="cls-22" d="M339.23,247.17c-.18,1.37-.35,2.72-.5,4.06l16.41,28.35c.5-.77,1-1.56,1.49-2.36Z" transform="translate(-35.95 -6.93)"/></g><g id="_Grupo_21" data-name="&lt;Grupo&gt;"><path id="_Trazado_41" data-name="&lt;Trazado&gt;" class="cls-22" d="M369.31,165.13c-.53.71-1.06,1.44-1.58,2.19l15,25.93c.13-1.5.23-3,.31-4.41Z" transform="translate(-35.95 -6.93)"/></g><g id="_Grupo_22" data-name="&lt;Grupo&gt;"><path id="_Trazado_42" data-name="&lt;Trazado&gt;" class="cls-22" d="M349.67,204.16c-.36,1-.71,2.06-1.06,3.1l22.48,38.84c.37-1,.72-2,1.07-3.09Z" transform="translate(-35.95 -6.93)"/></g><g id="_Grupo_23" data-name="&lt;Grupo&gt;"><path id="_Trazado_43" data-name="&lt;Trazado&gt;" class="cls-22" d="M362.79,175.08c-.47.82-1,1.65-1.41,2.5l19.09,33c.23-1.29.44-2.56.64-3.83Z" transform="translate(-35.95 -6.93)"/></g><g id="_Grupo_24" data-name="&lt;Grupo&gt;"><path id="_Trazado_44" data-name="&lt;Trazado&gt;" class="cls-22" d="M366.09,169.73c-.5.77-1,1.55-1.5,2.35l17.22,29.75c.18-1.38.35-2.74.49-4.09Z" transform="translate(-35.95 -6.93)"/></g><g id="_Grupo_25" data-name="&lt;Grupo&gt;"><path id="_Trazado_45" data-name="&lt;Trazado&gt;" class="cls-22" d="M359.92,180.3c-.45.85-.9,1.73-1.34,2.61L379,218.16c.26-1.23.51-2.44.75-3.65Z" transform="translate(-35.95 -6.93)"/></g><g id="_Grupo_26" data-name="&lt;Grupo&gt;"><path id="_Trazado_46" data-name="&lt;Trazado&gt;" class="cls-22" d="M352,198c-.38,1-.75,2-1.13,3l22.43,38.73c.34-1.06.67-2.13,1-3.2Z" transform="translate(-35.95 -6.93)"/></g><g id="_Grupo_27" data-name="&lt;Grupo&gt;"><path id="_Trazado_47" data-name="&lt;Trazado&gt;" class="cls-22" d="M376.36,229.05l-21.75-37.57c-.4.94-.81,1.89-1.2,2.85l22,38.06c.3-1.08.6-2.18.9-3.28Z" transform="translate(-35.95 -6.93)"/></g><g id="_Grupo_28" data-name="&lt;Grupo&gt;"><path id="_Trazado_48" data-name="&lt;Trazado&gt;" class="cls-22" d="M357.19,185.76c-.42.9-.85,1.82-1.27,2.74l21.38,36.92c.29-1.16.57-2.33.84-3.48Z" transform="translate(-35.95 -6.93)"/></g></g></g></g><g id="_Grupo_29" data-name="&lt;Grupo&gt;"><path id="_Trazado_49" data-name="&lt;Trazado&gt;" class="cls-7" d="M335.76,309.63c4.22-.12,9.89-9.53,9.89-9.53l8.26-.93L357.24,326l9.55-8.33L358.47,292l-15,2.09s-8.78,12.84-11.61,14.14C331.88,308.2,331.54,309.76,335.76,309.63Z" transform="translate(-35.95 -6.93)"/></g><g id="_Grupo_30" data-name="&lt;Grupo&gt;"><path id="_Trazado_50" data-name="&lt;Trazado&gt;" class="cls-7" d="M335.72,284.17c3.34,2,11.23,2.49,11.23,2.49l7.57,5.17.45,2.45.48,5,2,3.17,1.3,2.66-.1-.78L366,315.89l-.32-3.87-.45-20.62-28.06-24.77a11.69,11.69,0,0,0,4.51,11.72c1.17.86,2.42,1.81,3.7,2.8l1.31.39-.24.44-1.07-.83-12.53-3.7S332.38,282.16,335.72,284.17Z" transform="translate(-35.95 -6.93)"/></g><g id="_Grupo_31" data-name="&lt;Grupo&gt;"><path id="_Trazado_51" data-name="&lt;Trazado&gt;" class="cls-14" d="M367,316.78l0-25.37-19.06-25.75s-4.15,5.17,1.22,11.65,10.95,14.56,10.95,14.56L360,310.56Z" transform="translate(-35.95 -6.93)"/></g><g id="_Grupo_32" data-name="&lt;Grupo&gt;"><path id="_Trazado_52" data-name="&lt;Trazado&gt;" class="cls-14" d="M367,306.16l-3.78-11.53s-8.94,2.69-10.74,8.48,2.78,32.9,2.78,32.9l11.74-6.1Z" transform="translate(-35.95 -6.93)"/></g></g><g class="cls-24"><g id="_Grupo_33" data-name="&lt;Grupo&gt;"><rect id="_Trazado_53" data-name="&lt;Trazado&gt;" class="cls-25" x="334.41" y="330.52" width="67.86" height="26.86" transform="translate(-141.66 166) rotate(-23.2)"/><rect id="_Trazado_54" data-name="&lt;Trazado&gt;" class="cls-26" x="389.51" y="320.39" width="4.91" height="26.86" transform="translate(-135.76 174.49) rotate(-23.2)"/><rect id="_Trazado_55" data-name="&lt;Trazado&gt;" class="cls-26" x="378.23" y="325.23" width="4.91" height="26.86" transform="translate(-138.57 170.43) rotate(-23.2)"/><rect id="_Trazado_56" data-name="&lt;Trazado&gt;" class="cls-26" x="365.89" y="330.52" width="4.91" height="26.86" transform="translate(-141.66 166) rotate(-23.2)"/><rect id="_Trazado_57" data-name="&lt;Trazado&gt;" class="cls-26" x="353.15" y="335.98" width="4.91" height="26.86" transform="translate(-144.84 161.42) rotate(-23.2)"/><rect id="_Trazado_58" data-name="&lt;Trazado&gt;" class="cls-26" x="341.87" y="340.81" width="4.91" height="26.86" transform="translate(-147.66 157.37) rotate(-23.2)"/></g></g></g></g></g></g></g><path class="cls-16" d="M289.64,97.76l-4.16-2.4,8.27-14.3L279.42,91.85l-4.53-2.61,2.23-17.78-8.26,14.29-4.16-2.4,14.41-24.93,4.16,2.4-3,24.38,19.62-14.77,4.16,2.4Z" transform="translate(-35.95 -6.93)"/><path class="cls-16" d="M295.87,101.37,291.72,99,306.13,74l4.15,2.4Z" transform="translate(-35.95 -6.93)"/><path class="cls-16" d="M317,108l-6.56,1.75-8.31-4.8-1.76-6.56,1.2-2.08,4.16,2.4-.22.38.72,2.69,4.91,2.83,2.68-.72,1.64-2.83-.72-2.68-6.61-3.82L306.36,88l3.6-6.23L316.52,80l8.31,4.81,1.75,6.55-1.2,2.08-4.15-2.4.21-.38L320.72,88l-4.9-2.84-2.69.72-1.63,2.83.72,2.69,6.6,3.81,1.76,6.56Z" transform="translate(-35.95 -6.93)"/><path class="cls-16" d="M335.68,118.82l-6.56,1.76-8.31-4.81-1.76-6.55,1.21-2.08,4.15,2.4-.21.37.71,2.69,4.91,2.84,2.69-.72,1.63-2.83-.72-2.69-6.61-3.81-1.75-6.56,3.6-6.24,6.56-1.75,8.31,4.8,1.75,6.56-1.2,2.08-4.15-2.4.21-.38-.72-2.69L334.52,96l-2.69.72-1.63,2.82.72,2.69,6.61,3.82,1.75,6.56Z" transform="translate(-35.95 -6.93)"/><path class="cls-16" d="M339.51,126.58l-4.15-2.4,14.41-24.93,4.15,2.4Z" transform="translate(-35.95 -6.93)"/><path class="cls-16" d="M360.61,133.23l-6.72,1.66-8.15-4.71L344,123.63,353.6,107l6.55-1.75,8.32,4.8,1.75,6.56Zm-3.17-4.1,7.64-13.22-.72-2.69-4.9-2.83-2.69.72-7.64,13.21.72,2.69,4.9,2.84Z" transform="translate(-35.95 -6.93)"/><path class="cls-16" d="M376.91,148.2l-4.15-2.4.86-20.68L364.45,141l-4.16-2.4,14.41-24.93,4.13,2.44L378,136.78l9.2-15.92,4.15,2.4Z" transform="translate(-35.95 -6.93)"/><path class="cls-16" d="M408.41,160.85l-6.56,1.76-12.47-7.21,14.41-24.93,12.47,7.2,1.75,6.56Zm-3.17-4.1,7.63-13.22-.72-2.69-6.6-3.82-9.61,16.63,6.61,3.82Z" transform="translate(-35.95 -6.93)"/><path class="cls-16" d="M424.62,175.77l-4.28-2.48,1.37-4.75-5.91-3.41-3.44,3.55-4.28-2.47,20.44-21.45,4.49,2.59Zm-1.55-12L425.6,155l-6.35,6.58Z" transform="translate(-35.95 -6.93)"/><path class="cls-16" d="M457.4,161.45l-13,9.1L437.17,183l-4.15-2.4,7.2-12.47,1.39-15.83,4.57,2.64-.78,9,7.43-5.18Z" transform="translate(-35.95 -6.93)"/><path class="cls-16" d="M128.54,397.92l-4.28-2.48,1.36-4.75-5.9-3.41-3.44,3.55L112,388.36l20.43-21.45,4.49,2.59Zm-1.56-12,2.53-8.79-6.35,6.58Z" transform="translate(-35.95 -6.93)"/><path class="cls-16" d="M147.32,408.77l-16.62-9.6,14.41-24.94,4.15,2.4-12,20.78,12.46,7.21Z" transform="translate(-35.95 -6.93)"/><path class="cls-16" d="M168.43,415.43l-6.73,1.65-8.14-4.7-1.76-6.56,9.61-16.63,6.56-1.75,8.31,4.8L178,398.8l-1.2,2.08-4.15-2.4.21-.38-.72-2.68-4.9-2.84-2.69.72-7.64,13.22.72,2.68,4.91,2.84,2.68-.72.22-.38,4.16,2.41Z" transform="translate(-35.95 -6.93)"/><path class="cls-16" d="M184.64,430.34l-4.28-2.47,1.36-4.76-5.9-3.41-3.44,3.56-4.28-2.48,20.44-21.45,4.49,2.59Zm-1.55-12,2.53-8.79-6.36,6.58Z" transform="translate(-35.95 -6.93)"/><path class="cls-16" d="M203.43,441.2l-16.63-9.61,14.41-24.94,4.16,2.41-12,20.78,12.47,7.2Z" transform="translate(-35.95 -6.93)"/><path class="cls-16" d="M222.05,452l-4.28-2.47,1.36-4.75-5.9-3.41-3.44,3.55-4.29-2.47,20.44-21.46,4.49,2.6Zm-1.56-12,2.53-8.79-6.35,6.58Z" transform="translate(-35.95 -6.93)"/><path class="cls-16" d="M253.62,464.66l-6.56,1.75-12.46-7.2L249,434.27l12.46,7.21,1.76,6.55Zm-3.17-4.11,7.64-13.21-.72-2.69-6.61-3.82-9.61,16.62,6.61,3.82Z" transform="translate(-35.95 -6.93)"/><path class="cls-16" d="M269.92,479.62,253.3,470l14.41-24.94,16.62,9.61-2.4,4.15-12.47-7.2-3.6,6.23,6.23,3.6-2.4,4.16-6.23-3.6-3.6,6.23,12.46,7.21Z" transform="translate(-35.95 -6.93)"/><path class="cls-16" d="M125.15,437.54l-4.15-2.4,6-10.39-8.31-4.8-6,10.39-4.16-2.41L122.94,403l4.16,2.4-6,10.39,8.31,4.8,6-10.39,4.15,2.4Z" transform="translate(-35.95 -6.93)"/><path class="cls-16" d="M143.86,448.35l-16.63-9.61,14.41-24.93,16.63,9.6-2.41,4.16-12.46-7.21-3.61,6.24,6.24,3.6-2.4,4.16-6.24-3.6-3.6,6.23,12.47,7.2Z" transform="translate(-35.95 -6.93)"/><path class="cls-16" d="M162.56,459.16l-4.16-2.4.86-20.68L150.09,452l-4.16-2.4,14.41-24.94,4.14,2.45-.87,20.68,9.2-15.92,4.16,2.4Z" transform="translate(-35.95 -6.93)"/><path class="cls-16" d="M181.18,469.92l-4.28-2.48,1.36-4.76-5.9-3.41-3.44,3.56-4.29-2.47,20.44-21.46,4.49,2.6Zm-1.56-12,2.53-8.79-6.35,6.58Z" transform="translate(-35.95 -6.93)"/><path class="cls-16" d="M208.37,466.23l-6.73,1.65L200,480.77l-4.53-2.62,1.6-12.93-3.53-2-6,10.39-4.15-2.4,14.41-24.94,12.46,7.2L212,460Zm-3.18-4.11,1.64-2.83-.72-2.69-6.61-3.81L195.9,459l6.61,3.82Z" transform="translate(-35.95 -6.93)"/><path class="cls-16" d="M218.66,491.58,202,482,216.45,457l16.62,9.6-2.4,4.16-12.47-7.21-3.6,6.24,6.23,3.6-2.4,4.16L212.2,474l-3.6,6.24,12.46,7.2Z" transform="translate(-35.95 -6.93)"/><path class="cls-16" d="M239.77,498.23,233.21,500l-8.31-4.81-1.76-6.56,1.2-2.07,4.16,2.4-.22.37L229,492l4.91,2.83,2.68-.72,1.64-2.82-.72-2.69-6.61-3.82-1.75-6.56,3.6-6.23,6.56-1.75,8.31,4.8,1.75,6.56-1.2,2.07-4.15-2.4.21-.37-.72-2.69-4.9-2.83-2.69.71-1.63,2.83.72,2.69,6.6,3.82,1.76,6.56Z" transform="translate(-35.95 -6.93)"/><rect class="cls-16" x="194.8" y="410.85" width="9" height="3"/></svg>