<svg id="d3566095-8426-40ff-a9aa-04122168b273" data-name="Layer 1" xmlns="http://www.w3.org/2000/svg" xmlns:xlink="http://www.w3.org/1999/xlink" viewBox="0 0 480.19 554.47"><defs><style>.\35 d3e93cc-f105-4547-b877-0cc741ebf960{fill:none;}.bccbebea-55b4-4941-9c42-a2e0541d009b{fill:#414142;}.\34 1d89a83-0f6c-40fd-bdda-4cd4fe65e336{fill:#de7b47;}.\31 f03ba7b-baba-4a08-b375-c5f2cc184899{fill:#040006;}.\35 94e7015-bb08-4375-b31f-16e8db62355f{clip-path:url(#41ade3ed-e5fc-4b7c-b93c-df717eae0880);}.e4dad6e3-949e-425a-af6c-30017d8bec5b{clip-path:url(#5eb12c22-c7bd-46eb-ad15-b2b68b5257bd);}.f18a7bf7-4e9b-4f53-808d-1daa390ba545{fill:#d5a280;}.f875b24f-adf3-4cec-8d5a-6a89ab8a9115{clip-path:url(#3813b82b-5a3a-4e11-9e6f-f0f8d2e2a05f);}.d2a55797-9ebe-4e84-9d4a-cfc5e8f5098a{fill:#090609;}.\30 631ea80-46c4-48b8-81b3-5e52dd901910{fill:#afac8f;}.\37 66849af-86fd-478c-b8a5-1c7dc3be9157{fill:#898567;}.\39 179de25-f699-4d90-a096-61892f4ffb10{fill:#e5e2be;}.\38 4053c3e-31dd-40d9-a495-f737de1948e9{fill:#9e9e9e;}.f618671c-5f27-4315-b1ed-1ddf97f74592{fill:#e8c2a7;}.e8e3a1ca-85a8-4f09-bcc5-c032e43a4909{fill:#413d3b;}.f5e38404-bfe5-4d1a-9679-60f8b0a265ff{fill:#fff;}.ac872546-fdff-47d3-b522-5397f196f8e3{fill:#9f9c9b;}.\36 29eeb60-97b5-4683-a75c-faaf26e7bab4{fill:#404140;}.a9cb5d9d-d68d-49ea-9b8e-72f5ad12f34c{fill:#9f9f9f;}.\34 4450740-dcfe-4da7-b0d0-002f7d21e3cd{fill:#888;}.\37 abd86d5-dfaf-4d8e-9995-cca157f008ba{clip-path:url(#19d711f4-5087-4da7-9080-d42c253f7ab3);}.\30 9761e7b-1439-48f7-8c35-98c13b2932b3{fill:#afab8e;}.\37 f1c9c8d-932b-4b3a-b2e8-88b78cee7da6{fill:#898463;}</style><clipPath id="41ade3ed-e5fc-4b7c-b93c-df717eae0880" transform="translate(-35.95 -6.93)"><rect id="2c6a390f-7864-449b-9f6c-072e2be56127" data-name="&lt;Rectangle&gt;" class="5d3e93cc-f105-4547-b877-0cc741ebf960" x="109.24" y="122.91" width="314.8" height="285.08"/></clipPath><clipPath id="5eb12c22-c7bd-46eb-ad15-b2b68b5257bd" transform="translate(-35.95 -6.93)"><rect id="f5dea504-9c53-413b-8597-4af820af93c5" data-name="&lt;Rectangle&gt;" class="5d3e93cc-f105-4547-b877-0cc741ebf960" x="130.23" y="110.9" width="283.15" height="298.36" transform="translate(543.6 520.15) rotate(180)"/></clipPath><clipPath id="3813b82b-5a3a-4e11-9e6f-f0f8d2e2a05f" transform="translate(-35.95 -6.93)"><polygon class="5d3e93cc-f105-4547-b877-0cc741ebf960" points="182.11 226.44 182.11 335.09 276.2 389.41 370.29 335.09 370.29 226.44 276.2 172.12 182.11 226.44"/></clipPath><clipPath id="19d711f4-5087-4da7-9080-d42c253f7ab3" transform="translate(-35.95 -6.93)"><polygon class="5d3e93cc-f105-4547-b877-0cc741ebf960" points="179.11 228.44 179.11 337.09 273.2 391.41 367.29 337.09 367.29 228.44 273.2 174.12 179.11 228.44"/></clipPath></defs><title>mission-day-alcala</title><polygon class="bccbebea-55b4-4941-9c42-a2e0541d009b" points="0 138.62 0 415.86 240.09 554.48 480.19 415.86 480.19 138.62 240.09 0 0 138.62"/><polygon class="41d89a83-0f6c-40fd-bdda-4cd4fe65e336" points="16.24 147.99 16.24 406.48 240.09 535.73 463.95 406.48 463.95 147.99 240.09 18.75 16.24 147.99"/><polygon class="bccbebea-55b4-4941-9c42-a2e0541d009b" points="113.23 203.99 113.23 350.48 240.09 423.73 366.96 350.48 366.96 203.99 240.09 130.75 113.23 203.99"/><polygon class="1f03ba7b-baba-4a08-b375-c5f2cc184899" points="149.14 224.72 149.14 329.75 240.09 382.27 331.05 329.75 331.05 224.72 240.09 172.21 149.14 224.72"/><path class="bccbebea-55b4-4941-9c42-a2e0541d009b" d="M162.08,218.6l.46,50L74.05,217.56c-5.76-3.19-9.85-11.15-9.53-21.57l-.31-41.33c9.09,11.38,14.17,15.58,22.61,20.49Z" transform="translate(-35.95 -6.93)"/><path class="bccbebea-55b4-4941-9c42-a2e0541d009b" d="M162.08,315.24l.46,50L74.05,314.2C68.29,311,64.21,303,64.52,292.63l-.31-41.33c9.09,11.38,14.17,15.58,22.61,20.49Z" transform="translate(-35.95 -6.93)"/><path class="bccbebea-55b4-4941-9c42-a2e0541d009b" d="M388.33,349.35l-.46-50,88.49,51.09c5.76,3.19,9.85,11.15,9.53,21.57l.31,41.33c-9.09-11.37-14.17-15.58-22.61-20.49Z" transform="translate(-35.95 -6.93)"/><path class="bccbebea-55b4-4941-9c42-a2e0541d009b" d="M388.32,252.25l-.46-50,88.49,51.09c5.76,3.19,9.85,11.15,9.53,21.57l.31,41.33c-9.09-11.37-14.17-15.58-22.61-20.49Z" transform="translate(-35.95 -6.93)"/><g id="bfaabdf5-7483-435d-896a-43d83d38c134" data-name="&lt;Clip Group&gt;"><g class="594e7015-bb08-4375-b31f-16e8db62355f"><g id="ecf1f440-a9b5-4a9c-b8e7-ed72f23ef6e0" data-name="&lt;Clip Group&gt;"><g class="e4dad6e3-949e-425a-af6c-30017d8bec5b"><path id="746e6c6b-b01b-4799-a4f1-5773d9b6113d" data-name="&lt;Path&gt;" class="f18a7bf7-4e9b-4f53-808d-1daa390ba545" d="M356.07,304.43s-7,2.94-8.21,8.36,2.32,29.59,2.32,29.59L365,338.12Z" transform="translate(-35.95 -6.93)"/><g class="f875b24f-adf3-4cec-8d5a-6a89ab8a9115"><path id="94d67c16-82ec-48f8-b87b-019634360d49" data-name="&lt;Path&gt;" class="d2a55797-9ebe-4e84-9d4a-cfc5e8f5098a" d="M409.66,441.82c5-1.24-5.58-31-5.58-31l-91.7-109.67L282,456.07s13.63-.62,31.6-.62,28.5-1.86,35.32-1.86S404.7,443.06,409.66,441.82Z" transform="translate(-35.95 -6.93)"/></g><g class="f875b24f-adf3-4cec-8d5a-6a89ab8a9115"><path id="afc4090d-8376-48d8-9823-7316c7de712a" data-name="&lt;Path&gt;" class="d2a55797-9ebe-4e84-9d4a-cfc5e8f5098a" d="M222.86,476.79c14.23.5,64.5,0,67.35,0s5.22,2.48,10.43,0l70.67-70.37L322.46,271.63,211,222.57s-64.5,30.23-71.14,139.25,37.94,113.48,42.69,114.47S208.64,476.29,222.86,476.79Z" transform="translate(-35.95 -6.93)"/></g><path id="24a70ab4-7922-41fa-ad6f-c5d339b7e34b" data-name="&lt;Path&gt;" class="0631ea80-46c4-48b8-81b3-5e52dd901910" d="M340.94,310.8l-11.58-44.31-11.83,4.92L199.71,217l-13,3.3L164,261.1s23,72,82.48,97.64S340.94,310.8,340.94,310.8Z" transform="translate(-35.95 -6.93)"/><path id="e7c0e319-3e22-4672-8450-aee2a048b076" data-name="&lt;Path&gt;" class="766849af-86fd-478c-b8a5-1c7dc3be9157" d="M329.35,266.48l-11.83,4.92L199.71,217l-13,3.3-21.13,38.12.86-.37c5.45-2.48,4.71-12.14,12.64-16.85s3,15.36-4.21,15.36c-5.7,0-8.28,5.14-9,9.61.84,2.18,2,5,3.44,8.3,2.19.63,4.83-.93,6.28-7.25,2.73-11.89,11.65-10.16,12.64-5s-4,10.41-10.65,13.38c-2.51,1.12-4,3.88-4.46,6.93,1.74,3.51,3.75,7.32,6,11.31.21,0,.43.07.66.09,8.42.74-.25-10.41,8.42-17.34s15.61,9.91,8.18,17.59c-6.91,7.14-15.75-1.36-12,8.39,2.18,3.41,4.56,6.89,7.13,10.37,3.88,1.9,7-2.3,7.32-7.61.5-7.93,7.68-17.84,11.65-10.41s-.74,12.88-7.93,17.59a9.38,9.38,0,0,0-4.28,9c2.62,3.13,5.41,6.23,8.37,9.25a18.4,18.4,0,0,0,2.1.57c11.89,2.48-.74-21.06,10.41-26.51s14.87,13.38,10.41,20.32c-3.13,4.87-16.41,6.69-16.48,11.81a130.34,130.34,0,0,0,16.47,12.7c13.16,5.37,10.15-5.72,6.94-16.82-3.72-12.88,8.92-21.56,18.09-12.64s-8.18,20.81-8.92,34.19a7.69,7.69,0,0,0,.92,4.39,69.2,69.2,0,0,0,11,3.7c6.2-.61,12.75-3.67,14.1-7.1,2.73-6.94-11.89-19.82-6.69-27.25s19.08-2,17.59,10.16c-1.33,10.86-13.16,21.32-3.77,25.36a58.33,58.33,0,0,0,17.3-5.31c2.35-5.95.61-14.26-3.62-18.07-7.43-6.69-7.19-23.79,4.71-17.84s-2.73,21.06,8.18,29a8.47,8.47,0,0,0,1.17.73c2.15-1.52,4.2-3.14,6.16-4.82,1.79-7.89-.36-22.09-4.61-25.4-6.69-5.2,2.48-11.65,7.14-10.78s4,20.69,8.22,23.17,10.41-17.1,2.23-22.8-4.49-10-4.49-10S329,290,332,297.42c2.65,6.62,0,23,4.89,20.69,2.66-4.43,4-7.31,4-7.31L332.62,279c-1.23-2.84-2.09-4.63-2.09-4.63l.32-2.17Z" transform="translate(-35.95 -6.93)"/><path id="b72b2e4d-2ba2-450d-9d4b-f35fa5bf4e03" data-name="&lt;Path&gt;" class="9179de25-f699-4d90-a096-61892f4ffb10" d="M291.88,325.66c17.47-5.2,45.71-26.39,36-66.9s-38.67-54.86-38.67-54.86l-49.78-18.72c-25.27-11.15-74.33,34.56-50.59,82.5S274.41,330.86,291.88,325.66Z" transform="translate(-35.95 -6.93)"/><path id="6248145d-22d2-49d7-bf15-f2b758bd2e9f" data-name="&lt;Compound Path&gt;" class="84053c3e-31dd-40d9-a495-f737de1948e9" d="M182.58,241l66.93-5.31-64.6,21.84a62.58,62.58,0,0,0,4,10.12A90,90,0,0,0,196.24,280c11-12.51,32.26-32.48,56.62-34.1q.92-.06,1.84-.09,1.12,0,2.24,0c30.92.61-28.45,34.52-50.33,46.45a113.37,113.37,0,0,0,21,16.48c9.65-15.81,26-39.59,39.69-44,20.81-6.69-3.34,8.92-3.34,8.92l-11.19,47a111.38,111.38,0,0,0,23.2,5.56c-4.26-13.63-7.68-30.82-2.71-41.74a80.47,80.47,0,0,0,4.58-11.81l19.61,51a57.57,57.57,0,0,0,17.79-12.43C304.58,307.29,291,299.39,289.65,284a105.33,105.33,0,0,0-2.84-18L293,277.72l35.19,10.65c.19-.72.36-1.45.51-2.19-11.58-9.13-40.33-31.5-43.88-31.5-4.1,0-7.25-9.41-7.74-10.94l.15,0,15,11.36L328,259.26l-.11-.49q-.63-2.63-1.36-5.1c-10.9-6.52-28.83-15.1-43.72-11.91,9.37-3.24,24.26-8.46,33.18-11.59a86,86,0,0,0-7.06-9.63c-12.72,6-30.32,12.58-34.92,5.9-7.43-10.78-21.84-22.38-21.84-22.38l-9,17.18c-.77,0-30.09-10-48-16.13a65,65,0,0,0-7.32,12.36l62,10.08-66.1,2.37A56.8,56.8,0,0,0,182.58,241Zm94.5,2.55,0,0,0-.07Z" transform="translate(-35.95 -6.93)"/><path id="e779ad99-2aaa-432f-97d6-c5bac5aef67f" data-name="&lt;Path&gt;" class="f618671c-5f27-4315-b1ed-1ddf97f74592" d="M296,187.62s6.46-68.67-62.68-57.57C177.6,139,222.61,296,296,301Z" transform="translate(-35.95 -6.93)"/><path id="a5bfb800-343a-4a4c-a196-1368631e1203" data-name="&lt;Path&gt;" class="f18a7bf7-4e9b-4f53-808d-1daa390ba545" d="M255.09,269.92s-16-13.38-16-32.7-3.72-97.37-3.72-97.37L221.75,135c-32.53,25.24-2,132.7,52.41,159.89,1.54-1.11,2.48-1.92,2.48-1.92l-13-20.44,7.8-13.75Z" transform="translate(-35.95 -6.93)"/><g id="110ba58a-b3c0-43f9-9f20-3719fc132539" data-name="&lt;Group&gt;"><path id="f9416448-5399-4508-afa7-1af07d3c0bb4" data-name="&lt;Path&gt;" class="e8e3a1ca-85a8-4f09-bcc5-c032e43a4909" d="M296,203.42c-1.69-2.06-8.92-9.52-17.22,1.31,0,0,8.92-8.34,17.22-1.16Z" transform="translate(-35.95 -6.93)"/><path id="f6e3bd29-bf43-467b-bc9b-df35779fbca4" data-name="&lt;Path&gt;" class="e8e3a1ca-85a8-4f09-bcc5-c032e43a4909" d="M296,211.34v-.18c-1-1.31-3.87-4.69-7.17-4.69-4.09,0-6.27,6.44-6.27,6.44S286.32,202.88,296,211.34Z" transform="translate(-35.95 -6.93)"/><path id="de4af7fe-05f6-4a14-a26c-9936f395fc55" data-name="&lt;Path&gt;" class="f18a7bf7-4e9b-4f53-808d-1daa390ba545" d="M289.09,205.17a7.93,7.93,0,0,1,5.58,3.22s-2.63-4.71-6.31-4.34-4.59,4.58-4.59,4.58S285.5,204.92,289.09,205.17Z" transform="translate(-35.95 -6.93)"/><ellipse id="2b0c312c-fa8e-4718-8028-9283c74b8ca4" data-name="&lt;Path&gt;" class="e8e3a1ca-85a8-4f09-bcc5-c032e43a4909" cx="251.83" cy="205.15" rx="3.57" ry="4.87"/><ellipse id="d9a88229-91e6-4b9f-80fd-26e7d26ef130" data-name="&lt;Path&gt;" class="f5e38404-bfe5-4d1a-9679-60f8b0a265ff" cx="253.4" cy="207.46" rx="0.91" ry="1.24"/></g><g id="cbaf8388-bbca-49d0-9b33-b367f65d74c6" data-name="&lt;Group&gt;"><path id="eec67e35-526d-4d75-908b-bffa59f2fd92" data-name="&lt;Path&gt;" class="ac872546-fdff-47d3-b522-5397f196f8e3" d="M270,289.77l.28.21,4.46-1.11Z" transform="translate(-35.95 -6.93)"/><path id="2849a6f6-6a4d-4069-a529-0517cc7b516f" data-name="&lt;Path&gt;" class="629eeb60-97b5-4683-a75c-faaf26e7bab4" d="M266.53,290.44l3.52-.67c-2.92-2.25-28.46-22.45-36.52-46.62-7.49-22.48-5-94.68-4.26-112.13C187.15,144.6,213.45,255.26,266.53,290.44Z" transform="translate(-35.95 -6.93)"/><path id="b9e06afb-7b5a-4168-a6f1-79542ebd52d4" data-name="&lt;Path&gt;" class="1f03ba7b-baba-4a08-b375-c5f2cc184899" d="M214,209.71c4.85.79,10.36,0,14.94-1-1.48-29.47-.19-65.92.3-77.64C206.75,138.29,203.79,173.31,214,209.71Z" transform="translate(-35.95 -6.93)"/></g><path id="665611cf-16b5-441e-aeb1-923ea76a8696" data-name="&lt;Path&gt;" class="ac872546-fdff-47d3-b522-5397f196f8e3" d="M270,289.77l.28.21,4.46-1.11Z" transform="translate(-35.95 -6.93)"/><path id="843aaf59-7ee7-4cc9-a876-ac476396a881" data-name="&lt;Path&gt;" class="629eeb60-97b5-4683-a75c-faaf26e7bab4" d="M287.82,261l-8.92-.25s-1.83,21.45-14.24,28.43c9.62,6.78,20.17,11.09,31.37,11.86V287.56C293.1,281.06,288.48,269.67,287.82,261Z" transform="translate(-35.95 -6.93)"/><path id="e0e521e2-40cd-4bc8-8a1a-779f18a8d5a2" data-name="&lt;Path&gt;" class="f18a7bf7-4e9b-4f53-808d-1daa390ba545" d="M280.13,262.71c9.29-.5,13.13-3.72,13.13-3.72L290,256c-9,2.6-20.69-.62-20.69-.62L267.5,258S270.84,263.21,280.13,262.71Z" transform="translate(-35.95 -6.93)"/><path id="b14eee18-6233-4c22-9ff2-83816096878b" data-name="&lt;Path&gt;" class="629eeb60-97b5-4683-a75c-faaf26e7bab4" d="M283.57,253.19a13.84,13.84,0,0,0,2,3.82c3.72,5,23.29,19.57,23.29,19.57-5-22.3-22.05-31-22.05-31l-3.25.61-5-.61s-26.17,8.67-33.76,31c0,0,30-14.62,35.66-19.57A13.26,13.26,0,0,0,283.57,253.19Z" transform="translate(-35.95 -6.93)"/><path id="f889d738-1976-49b9-8722-766e67c78769" data-name="&lt;Path&gt;" class="f18a7bf7-4e9b-4f53-808d-1daa390ba545" d="M275.67,245c5.2,3.44,13.38.69,13.38.69C292.52,225.53,278.4,204,278.4,204c10.16,25,8.42,39.65,8.42,39.65C283,246.16,275.67,245,275.67,245Z" transform="translate(-35.95 -6.93)"/><path id="3732c525-4bda-4140-906b-ac69aee4fa68" data-name="&lt;Path&gt;" class="1f03ba7b-baba-4a08-b375-c5f2cc184899" d="M270.7,154.71c5.81-1.13,10.91-4.92,14.83-8.85-8.67-11.76-24.26-20.29-52.18-15.81a24.85,24.85,0,0,0-13.83,6.88l4.72,5.88S257.32,157.31,270.7,154.71Z" transform="translate(-35.95 -6.93)"/><path id="c0784b8c-1a9b-45da-afab-82a1b4ceb6f3" data-name="&lt;Path&gt;" class="f18a7bf7-4e9b-4f53-808d-1daa390ba545" d="M227.59,241.25,224.23,209s-12.09-12.76-16.79-3S219.86,251.66,227.59,241.25Z" transform="translate(-35.95 -6.93)"/><g id="0a583d1b-8bed-4d78-9676-4769fea1698a" data-name="&lt;Group&gt;"><path id="6848e137-3980-407b-b267-2c5badcd5bbd" data-name="&lt;Path&gt;" class="e8e3a1ca-85a8-4f09-bcc5-c032e43a4909" d="M239.17,204.73s15.2-8.59,29.07-.83C268.24,203.91,254.86,192.34,239.17,204.73Z" transform="translate(-35.95 -6.93)"/><path id="9775419f-164c-436c-ad82-f462ce554b27" data-name="&lt;Path&gt;" class="e8e3a1ca-85a8-4f09-bcc5-c032e43a4909" d="M263.16,211.67s-4.71-5.2-10.28-5.2-8.55,6.44-8.55,6.44S249.53,202.63,263.16,211.67Z" transform="translate(-35.95 -6.93)"/><path id="f5af49b7-fff9-4c2a-853a-6699f2ffd32e" data-name="&lt;Path&gt;" class="f18a7bf7-4e9b-4f53-808d-1daa390ba545" d="M253.19,205.17a11.67,11.67,0,0,1,7.62,3.22s-3.59-4.71-8.61-4.34a6.93,6.93,0,0,0-6.26,4.58A8.32,8.32,0,0,1,253.19,205.17Z" transform="translate(-35.95 -6.93)"/><circle id="d1d3888d-456a-4756-8e11-06d93dbffd38" data-name="&lt;Path&gt;" class="e8e3a1ca-85a8-4f09-bcc5-c032e43a4909" cx="215.45" cy="205.15" r="4.87"/><circle id="989903d3-561c-4824-9e6c-a2220975b980" data-name="&lt;Path&gt;" class="f5e38404-bfe5-4d1a-9679-60f8b0a265ff" cx="217.59" cy="207.46" r="1.24"/></g><g id="eedaed56-4bfc-451e-a30d-ca11d19a0db2" data-name="&lt;Group&gt;"><g id="85de89eb-b01f-4bba-9dc4-ba959b151fb0" data-name="&lt;Group&gt;"><g id="32cbcce0-7c93-48c3-b669-3553bf53134e" data-name="&lt;Group&gt;"><path id="f9b4f8d8-7e28-491c-a87b-b7b60860e235" data-name="&lt;Path&gt;" class="f18a7bf7-4e9b-4f53-808d-1daa390ba545" d="M342.09,313.68s-10.72-8.67-14.14-.1l11.36,5,12.17,11.41v-5l5.67-9.76Z" transform="translate(-35.95 -6.93)"/></g><g id="6be44b44-a5d2-4305-bdf0-e28fa46bc6b2" data-name="&lt;Group&gt;"><g id="1abd265a-bb74-4467-8efb-a98ba59cb2f1" data-name="&lt;Group&gt;"><polygon id="56502df1-091e-4019-ab15-e0351b6db571" data-name="&lt;Path&gt;" class="a9cb5d9d-d68d-49ea-9b8e-72f5ad12f34c" points="307.12 275.78 294.7 322.35 297.62 327.39 311.63 274.85 307.12 275.78"/></g><g id="3fdb7075-861e-4016-8871-5a58a2fc5bd4" data-name="&lt;Group&gt;"><g id="6007bbcc-2268-4575-9840-5d341f411d44" data-name="&lt;Group&gt;"><path id="82c4fa52-5728-458b-ab49-6af5b6f270e1" data-name="&lt;Path&gt;" class="44450740-dcfe-4da7-b0d0-002f7d21e3cd" d="M376.35,229.11c8.31-31.16,9-59.74,2.82-74.36-12.6,9.62-26.27,34.73-34.58,65.89s-9,59.74-2.82,74.36C354.37,285.37,368,260.27,376.35,229.11Z" transform="translate(-35.95 -6.93)"/></g><g id="508e7dc3-673a-48f1-b431-462f0ea3c5ca" data-name="&lt;Group&gt;"><path id="ab2514ca-e9ca-4459-afd1-0a69b8c2e651" data-name="&lt;Path&gt;" class="a9cb5d9d-d68d-49ea-9b8e-72f5ad12f34c" d="M376.35,229.11c8.31-31.16,9-59.74,2.82-74.36l-.08.06L341.73,294.9l0,.09C354.37,285.37,368,260.27,376.35,229.11Z" transform="translate(-35.95 -6.93)"/></g><g id="065a282e-5d2b-433a-aa00-c897c574539d" data-name="&lt;Group&gt;"><g id="959012e5-477a-4541-9614-ad8589e6c9f4" data-name="&lt;Group&gt;"><path id="264e69d1-4ed4-4ba4-bfdd-856d05d891f6" data-name="&lt;Path&gt;" class="a9cb5d9d-d68d-49ea-9b8e-72f5ad12f34c" d="M343.65,224.29q-.44,1.75-.84,3.48L363.76,264q.64-1.35,1.27-2.74Z" transform="translate(-35.95 -6.93)"/></g><g id="0681db12-fab2-4045-b305-668179a2d374" data-name="&lt;Group&gt;"><path id="3eb6e06e-0b4d-40ab-a20e-650b26b32bd7" data-name="&lt;Path&gt;" class="a9cb5d9d-d68d-49ea-9b8e-72f5ad12f34c" d="M340.48,239.16q-.34,1.93-.64,3.83l18.33,31.65q.71-1.22,1.41-2.49Z" transform="translate(-35.95 -6.93)"/></g><g id="a5ce88fc-eb1e-4bd3-b74f-40df03155d15" data-name="&lt;Group&gt;"><path id="aa07d171-5c33-44c5-9a43-0468ab1f81bd" data-name="&lt;Path&gt;" class="a9cb5d9d-d68d-49ea-9b8e-72f5ad12f34c" d="M342,231.56q-.39,1.83-.75,3.64L361,269.42q.67-1.29,1.34-2.62Z" transform="translate(-35.95 -6.93)"/></g><g id="0d646994-35cd-466a-b6b5-0d0eedee8f6c" data-name="&lt;Group&gt;"><path id="3f64c536-1e9f-4f42-bd52-7ffbe133a0c9" data-name="&lt;Path&gt;" class="a9cb5d9d-d68d-49ea-9b8e-72f5ad12f34c" d="M345.67,216.73q-.47,1.66-.93,3.34l21.81,37.67q.6-1.42,1.2-2.87Z" transform="translate(-35.95 -6.93)"/></g><g id="d1dfa4b2-d4cc-467d-8618-334df8f9bb2d" data-name="&lt;Group&gt;"><path id="8eb72f39-d65e-49fd-b5cb-341f25464235" data-name="&lt;Path&gt;" class="a9cb5d9d-d68d-49ea-9b8e-72f5ad12f34c" d="M347.69,210.05q-.51,1.59-1,3.21L369,251.77q.57-1.47,1.13-3Z" transform="translate(-35.95 -6.93)"/></g><g id="75a4875e-837d-4a09-a3d5-ca771de55302" data-name="&lt;Group&gt;"><path id="d356783e-4820-4223-a865-7c151545a7d5" data-name="&lt;Path&gt;" class="a9cb5d9d-d68d-49ea-9b8e-72f5ad12f34c" d="M349.91,286.83l-12.19-21q-.05,2.51,0,4.91l10.51,18.15Q349.06,287.88,349.91,286.83Z" transform="translate(-35.95 -6.93)"/></g><g id="27474d3c-5350-4875-bdc1-6e2425033c7e" data-name="&lt;Group&gt;"><path id="3a934a1a-123c-4650-9142-2aae09f091b6" data-name="&lt;Path&gt;" class="a9cb5d9d-d68d-49ea-9b8e-72f5ad12f34c" d="M338.21,256.46q-.19,2.24-.3,4.41l13.74,23.73q.8-1.06,1.59-2.19Z" transform="translate(-35.95 -6.93)"/></g><g id="4bb96d10-31e6-46f1-aed4-8404103a1cbe" data-name="&lt;Group&gt;"><path id="2423ef4d-6b7c-4adc-8fcb-0bc85e390293" data-name="&lt;Path&gt;" class="a9cb5d9d-d68d-49ea-9b8e-72f5ad12f34c" d="M339.23,247.17q-.28,2.05-.5,4.06l16.41,28.35q.75-1.15,1.49-2.36Z" transform="translate(-35.95 -6.93)"/></g><g id="5f240fc2-6b29-492f-8688-59a781217661" data-name="&lt;Group&gt;"><path id="a1bbf18d-c7bc-4f27-a600-6fc790d0a545" data-name="&lt;Path&gt;" class="a9cb5d9d-d68d-49ea-9b8e-72f5ad12f34c" d="M369.31,165.13q-.8,1.06-1.59,2.19l15,25.92q.18-2.24.3-4.41Z" transform="translate(-35.95 -6.93)"/></g><g id="434b014d-5229-489f-864d-e05b903dfee3" data-name="&lt;Group&gt;"><path id="f664af19-2749-4f98-a3da-5b0db22bdc6f" data-name="&lt;Path&gt;" class="a9cb5d9d-d68d-49ea-9b8e-72f5ad12f34c" d="M349.67,204.16q-.54,1.53-1.06,3.1l22.49,38.84q.54-1.53,1.07-3.09Z" transform="translate(-35.95 -6.93)"/></g><g id="c3a45a9e-ba5c-4459-b1f6-acfa29fe021d" data-name="&lt;Group&gt;"><path id="3634c502-eb7d-44b4-bc6c-42ad6cfd1237" data-name="&lt;Path&gt;" class="a9cb5d9d-d68d-49ea-9b8e-72f5ad12f34c" d="M362.79,175.08q-.71,1.22-1.41,2.49l19.09,33q.34-1.93.64-3.83Z" transform="translate(-35.95 -6.93)"/></g><g id="12fa8ecf-bd23-4e0f-b12b-ed2b52989f3b" data-name="&lt;Group&gt;"><path id="14572629-fbcb-4d85-872a-f4a4d3c5d52c" data-name="&lt;Path&gt;" class="a9cb5d9d-d68d-49ea-9b8e-72f5ad12f34c" d="M366.09,169.73q-.75,1.14-1.5,2.35l17.22,29.75q.27-2.06.49-4.09Z" transform="translate(-35.95 -6.93)"/></g><g id="8aa8dbb9-83cd-4b9f-811f-274f9c1bbd1d" data-name="&lt;Group&gt;"><path id="33c9d2f2-0851-4a85-aa21-e1de7d029645" data-name="&lt;Path&gt;" class="a9cb5d9d-d68d-49ea-9b8e-72f5ad12f34c" d="M359.92,180.3q-.67,1.29-1.34,2.62L379,218.16q.39-1.83.75-3.64Z" transform="translate(-35.95 -6.93)"/></g><g id="2768af96-39c0-49d4-a907-818691604774" data-name="&lt;Group&gt;"><path id="3f5145c5-d03e-4830-ae5d-d81782bde2ac" data-name="&lt;Path&gt;" class="a9cb5d9d-d68d-49ea-9b8e-72f5ad12f34c" d="M352,197.95q-.57,1.47-1.13,3l22.43,38.73q.51-1.59,1-3.21Z" transform="translate(-35.95 -6.93)"/></g><g id="3e6624a8-1eeb-4343-ab95-72cf5c57cf5f" data-name="&lt;Group&gt;"><path id="fcd8d875-ba3d-4642-9efa-c2818b1d8f60" data-name="&lt;Path&gt;" class="a9cb5d9d-d68d-49ea-9b8e-72f5ad12f34c" d="M376.36,229l-21.75-37.57q-.61,1.41-1.2,2.86l22,38.06q.46-1.63.9-3.29Z" transform="translate(-35.95 -6.93)"/></g><g id="00efefb1-e5cd-4d24-a2dc-b23910d5cd24" data-name="&lt;Group&gt;"><path id="aa3bb057-abf0-4e30-9404-8410214f89b1" data-name="&lt;Path&gt;" class="a9cb5d9d-d68d-49ea-9b8e-72f5ad12f34c" d="M357.19,185.76q-.64,1.35-1.27,2.74l21.37,36.92q.44-1.75.84-3.48Z" transform="translate(-35.95 -6.93)"/></g></g></g></g><g id="d2e1ae68-62bf-45b9-aea3-88389b0d23bf" data-name="&lt;Group&gt;"><path id="ab533588-7cbe-47fc-9d33-712f9389b511" data-name="&lt;Path&gt;" class="f18a7bf7-4e9b-4f53-808d-1daa390ba545" d="M335.76,309.63c4.22-.12,9.89-9.53,9.89-9.53l8.26-.93L357.24,326l9.56-8.33L358.47,292l-15,2.09s-8.79,12.84-11.61,14.14C331.88,308.2,331.54,309.76,335.76,309.63Z" transform="translate(-35.95 -6.93)"/></g><g id="e2f8183b-6577-42ab-9a14-9664706f8bff" data-name="&lt;Group&gt;"><path id="6e11fd9e-e04d-4313-b24e-e57a2a35b9eb" data-name="&lt;Path&gt;" class="f18a7bf7-4e9b-4f53-808d-1daa390ba545" d="M335.72,284.17c3.34,2,11.23,2.49,11.23,2.49l7.58,5.18.44,2.45.48,5,2,3.17,1.3,2.66-.1-.77L366,315.89l-.33-3.87-.45-20.62-28.06-24.77a11.68,11.68,0,0,0,4.51,11.72c1.16.86,2.42,1.82,3.69,2.8l1.32.39-.24.44-1.08-.83-12.52-3.7S332.38,282.16,335.72,284.17Z" transform="translate(-35.95 -6.93)"/></g><g id="6cddedd9-cd64-40e7-b143-2eb424cd5013" data-name="&lt;Group&gt;"><path id="cc9d8374-657c-4704-943b-681782097c5f" data-name="&lt;Path&gt;" class="f618671c-5f27-4315-b1ed-1ddf97f74592" d="M367,316.78l0-25.38-19.06-25.74s-4.15,5.17,1.22,11.65,10.95,14.56,10.95,14.56L360,310.56Z" transform="translate(-35.95 -6.93)"/></g><g id="5e4555cd-0f20-4388-9232-b78c64d1a59d" data-name="&lt;Group&gt;"><path id="5eb76094-037d-4eed-bb4b-56a828d5bc4b" data-name="&lt;Path&gt;" class="f618671c-5f27-4315-b1ed-1ddf97f74592" d="M367,306.16l-3.78-11.53s-8.94,2.69-10.74,8.49,2.78,32.9,2.78,32.9l11.74-6.1Z" transform="translate(-35.95 -6.93)"/></g></g><g class="7abd86d5-dfaf-4d8e-9995-cca157f008ba"><g id="fe835a07-0f62-475f-b3d4-04cf6a7e15fb" data-name="&lt;Group&gt;"><rect id="4b883608-2d63-4154-9763-93868976ae13" data-name="&lt;Path&gt;" class="09761e7b-1439-48f7-8c35-98c13b2932b3" x="334.41" y="330.52" width="67.86" height="26.86" transform="translate(-141.66 166) rotate(-23.2)"/><rect id="ccf968b6-e4c6-4c46-8d86-4b48b84409ac" data-name="&lt;Path&gt;" class="7f1c9c8d-932b-4b3a-b2e8-88b78cee7da6" x="389.51" y="320.39" width="4.91" height="26.86" transform="translate(-135.76 174.49) rotate(-23.2)"/><rect id="6b966d3b-901b-41ef-b781-30f5118bbce2" data-name="&lt;Path&gt;" class="7f1c9c8d-932b-4b3a-b2e8-88b78cee7da6" x="378.23" y="325.23" width="4.91" height="26.86" transform="translate(-138.57 170.43) rotate(-23.2)"/><rect id="7afbb37f-60ba-48e6-adea-2e25164d1f55" data-name="&lt;Path&gt;" class="7f1c9c8d-932b-4b3a-b2e8-88b78cee7da6" x="365.89" y="330.52" width="4.91" height="26.86" transform="translate(-141.66 166) rotate(-23.2)"/><rect id="18fdf71a-6e3a-43d1-98d1-ce8c326972ba" data-name="&lt;Path&gt;" class="7f1c9c8d-932b-4b3a-b2e8-88b78cee7da6" x="353.15" y="335.98" width="4.91" height="26.86" transform="translate(-144.84 161.42) rotate(-23.2)"/><rect id="ab40ac24-a1d8-4a87-9cb1-9f25833c0636" data-name="&lt;Path&gt;" class="7f1c9c8d-932b-4b3a-b2e8-88b78cee7da6" x="341.87" y="340.81" width="4.91" height="26.86" transform="translate(-147.66 157.37) rotate(-23.2)"/></g></g></g></g></g></g></g><path class="f5e38404-bfe5-4d1a-9679-60f8b0a265ff" d="M289.64,97.76l-4.16-2.4,8.26-14.3L279.42,91.85l-4.53-2.62,2.24-17.78-8.26,14.3-4.16-2.4,14.41-24.94,4.16,2.4-3,24.38,19.62-14.77,4.16,2.4Z" transform="translate(-35.95 -6.93)"/><path class="f5e38404-bfe5-4d1a-9679-60f8b0a265ff" d="M295.87,101.37,291.72,99,306.13,74l4.16,2.4Z" transform="translate(-35.95 -6.93)"/><path class="f5e38404-bfe5-4d1a-9679-60f8b0a265ff" d="M317,108l-6.56,1.75-8.31-4.8-1.75-6.56,1.2-2.08,4.16,2.4-.22.37.72,2.69,4.9,2.83,2.69-.72,1.63-2.83-.72-2.69-6.61-3.82L306.36,88l3.6-6.23L316.52,80l8.31,4.8,1.75,6.56-1.2,2.08-4.16-2.4.22-.37L320.72,88l-4.9-2.83-2.69.72-1.63,2.83.72,2.69,6.61,3.82,1.75,6.56Z" transform="translate(-35.95 -6.93)"/><path class="f5e38404-bfe5-4d1a-9679-60f8b0a265ff" d="M335.68,118.82l-6.56,1.75-8.31-4.8-1.75-6.56,1.2-2.08,4.16,2.4-.22.37.72,2.69,4.9,2.83,2.69-.72,1.63-2.83-.72-2.69-6.61-3.82-1.75-6.56,3.6-6.23,6.56-1.75,8.31,4.8,1.75,6.56-1.2,2.08-4.16-2.4.22-.37-.72-2.69L334.52,96l-2.69.72-1.63,2.83.72,2.69,6.61,3.82,1.75,6.56Z" transform="translate(-35.95 -6.93)"/><path class="f5e38404-bfe5-4d1a-9679-60f8b0a265ff" d="M339.51,126.58l-4.16-2.4,14.41-24.94,4.16,2.4Z" transform="translate(-35.95 -6.93)"/><path class="f5e38404-bfe5-4d1a-9679-60f8b0a265ff" d="M360.61,133.23l-6.72,1.66-8.15-4.71L344,123.63,353.6,107l6.56-1.75,8.31,4.8,1.75,6.56Zm-3.17-4.11,7.64-13.22-.72-2.69-4.9-2.83-2.69.72-7.64,13.22.72,2.69,4.9,2.83Z" transform="translate(-35.95 -6.93)"/><path class="f5e38404-bfe5-4d1a-9679-60f8b0a265ff" d="M376.91,148.2l-4.16-2.4.86-20.68L364.45,141l-4.16-2.4,14.41-24.94,4.13,2.44L378,136.78l9.2-15.92,4.16,2.4Z" transform="translate(-35.95 -6.93)"/><path class="f5e38404-bfe5-4d1a-9679-60f8b0a265ff" d="M408.41,160.85l-6.56,1.75-12.47-7.21,14.41-24.94,12.47,7.21,1.75,6.56Zm-3.17-4.11,7.64-13.22-.72-2.69L405.55,137l-9.61,16.62,6.61,3.82Z" transform="translate(-35.95 -6.93)"/><path class="f5e38404-bfe5-4d1a-9679-60f8b0a265ff" d="M424.62,175.77l-4.28-2.47,1.36-4.76-5.9-3.41-3.44,3.56-4.28-2.47,20.44-21.45,4.49,2.59Zm-1.55-12L425.6,155l-6.35,6.58Z" transform="translate(-35.95 -6.93)"/><path class="f5e38404-bfe5-4d1a-9679-60f8b0a265ff" d="M457.4,161.45l-13,9.11L437.17,183l-4.16-2.4,7.21-12.47,1.39-15.83,4.57,2.64-.78,9,7.43-5.18Z" transform="translate(-35.95 -6.93)"/><path class="f5e38404-bfe5-4d1a-9679-60f8b0a265ff" d="M128.54,397.92l-4.28-2.47,1.36-4.76-5.9-3.41-3.44,3.55L112,388.36l20.44-21.45,4.49,2.59Zm-1.56-12,2.53-8.79-6.35,6.58Z" transform="translate(-35.95 -6.93)"/><path class="f5e38404-bfe5-4d1a-9679-60f8b0a265ff" d="M147.32,408.77l-16.62-9.61,14.41-24.94,4.16,2.4-12,20.78,12.47,7.21Z" transform="translate(-35.95 -6.93)"/><path class="f5e38404-bfe5-4d1a-9679-60f8b0a265ff" d="M168.43,415.43l-6.72,1.66-8.14-4.71-1.75-6.56,9.61-16.62,6.56-1.75,8.31,4.8L178,398.8l-1.2,2.08-4.16-2.4.22-.37-.72-2.69-4.9-2.83-2.69.72-7.64,13.22.72,2.69,4.9,2.83,2.69-.72.22-.37,4.16,2.4Z" transform="translate(-35.95 -6.93)"/><path class="f5e38404-bfe5-4d1a-9679-60f8b0a265ff" d="M184.64,430.34l-4.28-2.47,1.36-4.76-5.9-3.41-3.44,3.55-4.28-2.47,20.44-21.45,4.49,2.59Zm-1.56-12,2.53-8.79-6.35,6.58Z" transform="translate(-35.95 -6.93)"/><path class="f5e38404-bfe5-4d1a-9679-60f8b0a265ff" d="M203.43,441.2l-16.62-9.61,14.41-24.94,4.16,2.4-12,20.78L205.83,437Z" transform="translate(-35.95 -6.93)"/><path class="f5e38404-bfe5-4d1a-9679-60f8b0a265ff" d="M222,452l-4.28-2.47,1.36-4.76-5.9-3.41-3.44,3.55-4.28-2.47,20.44-21.45,4.49,2.59Zm-1.56-12,2.53-8.79-6.36,6.58Z" transform="translate(-35.95 -6.93)"/><path class="f5e38404-bfe5-4d1a-9679-60f8b0a265ff" d="M253.62,464.66l-6.56,1.75-12.47-7.21L249,434.27l12.47,7.21,1.75,6.56Zm-3.17-4.11,7.64-13.21-.72-2.69-6.61-3.82-9.61,16.63,6.61,3.82Z" transform="translate(-35.95 -6.93)"/><path class="f5e38404-bfe5-4d1a-9679-60f8b0a265ff" d="M269.92,479.62,253.3,470l14.41-24.94,16.62,9.61-2.4,4.16-12.47-7.21-3.6,6.23,6.23,3.6-2.4,4.16-6.23-3.6-3.6,6.23,12.47,7.21Z" transform="translate(-35.95 -6.93)"/><path class="f5e38404-bfe5-4d1a-9679-60f8b0a265ff" d="M125.15,437.54l-4.16-2.4,6-10.39-8.31-4.8-6,10.39-4.16-2.4L122.94,403l4.16,2.4-6,10.39,8.31,4.8,6-10.39,4.16,2.4Z" transform="translate(-35.95 -6.93)"/><path class="f5e38404-bfe5-4d1a-9679-60f8b0a265ff" d="M143.86,448.35l-16.62-9.61,14.41-24.94,16.62,9.61-2.4,4.16-12.47-7.21-3.6,6.23,6.23,3.6-2.4,4.16-6.23-3.6-3.6,6.23,12.47,7.21Z" transform="translate(-35.95 -6.93)"/><path class="f5e38404-bfe5-4d1a-9679-60f8b0a265ff" d="M162.56,459.16l-4.16-2.4.86-20.68L150.09,452l-4.16-2.4,14.41-24.94,4.13,2.44-.86,20.68,9.2-15.92,4.16,2.4Z" transform="translate(-35.95 -6.93)"/><path class="f5e38404-bfe5-4d1a-9679-60f8b0a265ff" d="M181.18,469.92l-4.28-2.47,1.36-4.76-5.9-3.41-3.44,3.56-4.28-2.47,20.44-21.45,4.49,2.59Zm-1.56-12,2.53-8.79-6.35,6.58Z" transform="translate(-35.95 -6.93)"/><path class="f5e38404-bfe5-4d1a-9679-60f8b0a265ff" d="M208.37,466.23l-6.72,1.66L200,480.77l-4.53-2.62,1.6-12.94-3.53-2-6,10.39-4.16-2.4,14.41-24.94,12.47,7.2L212,460Zm-3.17-4.11,1.63-2.83-.72-2.69-6.61-3.82L195.9,459l6.61,3.82Z" transform="translate(-35.95 -6.93)"/><path class="f5e38404-bfe5-4d1a-9679-60f8b0a265ff" d="M218.66,491.58,202,482,216.45,457l16.62,9.61-2.4,4.15-12.47-7.2-3.6,6.23,6.23,3.6-2.4,4.16L212.2,474l-3.6,6.23,12.47,7.21Z" transform="translate(-35.95 -6.93)"/><path class="f5e38404-bfe5-4d1a-9679-60f8b0a265ff" d="M239.77,498.23,233.21,500l-8.31-4.8-1.75-6.56,1.2-2.08,4.16,2.4-.22.38L229,492l4.9,2.83,2.69-.72,1.63-2.83-.72-2.69-6.61-3.82-1.75-6.56,3.6-6.23,6.56-1.75,8.31,4.8,1.75,6.56-1.2,2.08-4.16-2.4.22-.37-.72-2.69-4.9-2.83-2.69.72-1.63,2.83.72,2.69,6.61,3.82,1.75,6.56Z" transform="translate(-35.95 -6.93)"/><rect class="f5e38404-bfe5-4d1a-9679-60f8b0a265ff" x="194.8" y="410.85" width="9" height="3"/></svg>